<?xml version="1.0" encoding="UTF-8" standalone="no"?>
<!DOCTYPE svg PUBLIC "-//W3C//DTD SVG 1.1//EN"
 "http://www.w3.org/Graphics/SVG/1.1/DTD/svg11.dtd">
<!-- Generated by graphviz version 2.48.0 (0)
 -->
<!-- Title: g Pages: 1 -->
<svg width="1187pt" height="343pt"
 viewBox="0.00 0.00 1187.00 343.00" xmlns="http://www.w3.org/2000/svg" xmlns:xlink="http://www.w3.org/1999/xlink">
<g id="graph0" class="graph" transform="scale(1 1) rotate(0) translate(4 339)">
<title>g</title>
<polygon fill="white" stroke="transparent" points="-4,4 -4,-339 1183,-339 1183,4 -4,4"/>
<!-- node0 -->
<g id="node1" class="node">
<title>node0</title>
<path fill="green" stroke="black" d="M16,-103.5C16,-103.5 157,-103.5 157,-103.5 163,-103.5 169,-109.5 169,-115.5 169,-115.5 169,-175.5 169,-175.5 169,-181.5 163,-187.5 157,-187.5 157,-187.5 16,-187.5 16,-187.5 10,-187.5 4,-181.5 4,-175.5 4,-175.5 4,-115.5 4,-115.5 4,-109.5 10,-103.5 16,-103.5"/>
<text text-anchor="middle" x="86.5" y="-173.9" font-family="Times,serif" font-size="12.00">Ophalen data SolarEdge</text>
<polyline fill="none" stroke="black" points="4,-166.5 169,-166.5 "/>
<text text-anchor="middle" x="86.5" y="-152.9" font-family="Times,serif" font-size="12.00">API SolarEdge</text>
<polyline fill="none" stroke="black" points="4,-145.5 169,-145.5 "/>
<text text-anchor="middle" x="86.5" y="-131.9" font-family="Times,serif" font-size="12.00">Python</text>
<polyline fill="none" stroke="black" points="4,-124.5 169,-124.5 "/>
<text text-anchor="middle" x="86.5" y="-110.9" font-family="Times,serif" font-size="12.00">Verversen mogelijk</text>
</g>
<!-- node2 -->
<g id="node3" class="node">
<title>node2</title>
<path fill="green" stroke="black" d="M266,-73C266,-73 337,-73 337,-73 343,-73 349,-79 349,-85 349,-85 349,-124 349,-124 349,-130 343,-136 337,-136 337,-136 266,-136 266,-136 260,-136 254,-130 254,-124 254,-124 254,-85 254,-85 254,-79 260,-73 266,-73"/>
<text text-anchor="middle" x="301.5" y="-122.4" font-family="Times,serif" font-size="12.00">Data storage</text>
<polyline fill="none" stroke="black" points="254,-115 349,-115 "/>
<text text-anchor="middle" x="301.5" y="-101.4" font-family="Times,serif" font-size="12.00">SQL</text>
<polyline fill="none" stroke="black" points="254,-94 349,-94 "/>
<text text-anchor="middle" x="301.5" y="-80.4" font-family="Times,serif" font-size="12.00">SQLite3</text>
</g>
<!-- node0&#45;&gt;node2 -->
<g id="edge2" class="edge">
<title>node0:f0&#45;&gt;node2:f0</title>
<path fill="none" stroke="black" d="M170.5,-177.5C192.47,-177.5 190.43,-158.24 209,-146.5 223.88,-137.09 229.17,-128.99 242.45,-126.38"/>
<polygon fill="black" stroke="black" points="242.84,-129.86 252.5,-125.5 242.23,-122.88 242.84,-129.86"/>
</g>
<!-- node1 -->
<g id="node2" class="node">
<title>node1</title>
<path fill="green" stroke="black" d="M12,-0.5C12,-0.5 161,-0.5 161,-0.5 167,-0.5 173,-6.5 173,-12.5 173,-12.5 173,-72.5 173,-72.5 173,-78.5 167,-84.5 161,-84.5 161,-84.5 12,-84.5 12,-84.5 6,-84.5 0,-78.5 0,-72.5 0,-72.5 0,-12.5 0,-12.5 0,-6.5 6,-0.5 12,-0.5"/>
<text text-anchor="middle" x="86.5" y="-70.9" font-family="Times,serif" font-size="12.00">Ophalen (oude) data weer</text>
<polyline fill="none" stroke="black" points="0,-63.5 173,-63.5 "/>
<text text-anchor="middle" x="86.5" y="-49.9" font-family="Times,serif" font-size="12.00">API KNMI</text>
<polyline fill="none" stroke="black" points="0,-42.5 173,-42.5 "/>
<text text-anchor="middle" x="86.5" y="-28.9" font-family="Times,serif" font-size="12.00">Python</text>
<polyline fill="none" stroke="black" points="0,-21.5 173,-21.5 "/>
<text text-anchor="middle" x="86.5" y="-7.9" font-family="Times,serif" font-size="12.00">Verversen mogelijk</text>
</g>
<!-- node1&#45;&gt;node2 -->
<g id="edge3" class="edge">
<title>node1:f0&#45;&gt;node2:f0</title>
<path fill="none" stroke="black" d="M173,-74.5C211.21,-74.5 210.95,-116.75 242.24,-124.34"/>
<polygon fill="black" stroke="black" points="242.17,-127.85 252.5,-125.5 242.96,-120.9 242.17,-127.85"/>
</g>
<!-- node_combineren -->
<g id="node9" class="node">
<title>node_combineren</title>
<path fill="#f7f7f7" stroke="black" d="M442,-141.5C442,-141.5 567,-141.5 567,-141.5 573,-141.5 579,-147.5 579,-153.5 579,-153.5 579,-171.5 579,-171.5 579,-177.5 573,-183.5 567,-183.5 567,-183.5 442,-183.5 442,-183.5 436,-183.5 430,-177.5 430,-171.5 430,-171.5 430,-153.5 430,-153.5 430,-147.5 436,-141.5 442,-141.5"/>
<text text-anchor="middle" x="504.5" y="-169.9" font-family="Times,serif" font-size="12.00">Gegevens combineren</text>
<polyline fill="none" stroke="black" points="430,-162.5 579,-162.5 "/>
<text text-anchor="middle" x="504.5" y="-148.9" font-family="Times,serif" font-size="12.00">Jupyter</text>
</g>
<!-- node2&#45;&gt;node_combineren -->
<g id="edge4" class="edge">
<title>node2:f0&#45;&gt;node_combineren:f0</title>
<path fill="none" stroke="black" d="M350.5,-125.5C371.97,-125.5 375.66,-135.34 394,-146.5 407.62,-154.78 409.69,-167.01 420.09,-171.64"/>
<polygon fill="black" stroke="black" points="419.53,-175.09 430,-173.5 420.82,-168.21 419.53,-175.09"/>
</g>
<!-- node_weer -->
<g id="node4" class="node">
<title>node_weer</title>
<path fill="green" stroke="black" d="M221,-250.5C221,-250.5 382,-250.5 382,-250.5 388,-250.5 394,-256.5 394,-262.5 394,-262.5 394,-322.5 394,-322.5 394,-328.5 388,-334.5 382,-334.5 382,-334.5 221,-334.5 221,-334.5 215,-334.5 209,-328.5 209,-322.5 209,-322.5 209,-262.5 209,-262.5 209,-256.5 215,-250.5 221,-250.5"/>
<text text-anchor="middle" x="301.5" y="-320.9" font-family="Times,serif" font-size="12.00">Weersvoorspelling</text>
<polyline fill="none" stroke="black" points="209,-313.5 394,-313.5 "/>
<text text-anchor="middle" x="301.5" y="-299.9" font-family="Times,serif" font-size="12.00">JSON KNMI</text>
<polyline fill="none" stroke="black" points="209,-292.5 394,-292.5 "/>
<text text-anchor="middle" x="301.5" y="-278.9" font-family="Times,serif" font-size="12.00">Python/Jupyter</text>
<polyline fill="none" stroke="black" points="209,-271.5 394,-271.5 "/>
<text text-anchor="middle" x="301.5" y="-257.9" font-family="Times,serif" font-size="12.00">Ophalen voorspelling KNMI</text>
</g>
<!-- node_weer&#45;&gt;node_combineren -->
<g id="edge1" class="edge">
<title>node_weer:f0&#45;&gt;node_combineren:n</title>
<path fill="none" stroke="black" d="M394,-324.5C469.86,-324.5 501.73,-268.88 504.33,-194.61"/>
<polygon fill="black" stroke="black" points="507.83,-194.56 504.5,-184.5 500.83,-194.44 507.83,-194.56"/>
</g>
<!-- node_ML -->
<g id="node5" class="node">
<title>node_ML</title>
<path fill="#f7f7f7" stroke="black" d="M627,-76C627,-76 746,-76 746,-76 752,-76 758,-82 758,-88 758,-88 758,-161 758,-161 758,-167 752,-173 746,-173 746,-173 627,-173 627,-173 621,-173 615,-167 615,-161 615,-161 615,-88 615,-88 615,-82 621,-76 627,-76"/>
<text text-anchor="middle" x="686.5" y="-159.4" font-family="Times,serif" font-size="12.00">Machine learning</text>
<polyline fill="none" stroke="black" points="615,-152 758,-152 "/>
<text text-anchor="middle" x="686.5" y="-138.4" font-family="Times,serif" font-size="12.00">sk&#45;learn</text>
<polyline fill="none" stroke="black" points="615,-131 758,-131 "/>
<text text-anchor="middle" x="686.5" y="-117.4" font-family="Times,serif" font-size="12.00">Jupyter/Pandas</text>
<polyline fill="none" stroke="black" points="615,-110 758,-110 "/>
<text text-anchor="middle" x="686.5" y="-96.4" font-family="Times,serif" font-size="12.00">Leren en voorspellen</text>
<text text-anchor="middle" x="686.5" y="-83.4" font-family="Times,serif" font-size="12.00">kNN/CNN/RNN?</text>
</g>
<!-- node_opbrengst -->
<g id="node6" class="node">
<title>node_opbrengst</title>
<path fill="#f7f7f7" stroke="black" d="M806,-103.5C806,-103.5 910,-103.5 910,-103.5 916,-103.5 922,-109.5 922,-115.5 922,-115.5 922,-167.5 922,-167.5 922,-173.5 916,-179.5 910,-179.5 910,-179.5 806,-179.5 806,-179.5 800,-179.5 794,-173.5 794,-167.5 794,-167.5 794,-115.5 794,-115.5 794,-109.5 800,-103.5 806,-103.5"/>
<text text-anchor="middle" x="858" y="-165.9" font-family="Times,serif" font-size="12.00">Opbrengst per uur</text>
<text text-anchor="middle" x="858" y="-152.9" font-family="Times,serif" font-size="12.00">of per dag</text>
<polyline fill="none" stroke="black" points="794,-145.5 922,-145.5 "/>
<text text-anchor="middle" x="858" y="-131.9" font-family="Times,serif" font-size="12.00">Jupyter/Pandas</text>
<polyline fill="none" stroke="black" points="794,-124.5 922,-124.5 "/>
<text text-anchor="middle" x="858" y="-110.9" font-family="Times,serif" font-size="12.00">dag = Σ uren</text>
</g>
<!-- node_ML&#45;&gt;node_opbrengst -->
<g id="edge7" class="edge">
<title>node_ML:f0&#45;&gt;node_opbrengst:f0</title>
<path fill="none" stroke="black" d="M758,-162.5C770,-162.5 775.25,-162.5 783.88,-162.5"/>
<polygon fill="black" stroke="black" points="784,-166 794,-162.5 784,-159 784,-166"/>
</g>
<!-- node_accu -->
<g id="node7" class="node">
<title>node_accu</title>
<path fill="#f7f7f7" stroke="black" d="M970,-110C970,-110 1167,-110 1167,-110 1173,-110 1179,-116 1179,-122 1179,-122 1179,-161 1179,-161 1179,-167 1173,-173 1167,-173 1167,-173 970,-173 970,-173 964,-173 958,-167 958,-161 958,-161 958,-122 958,-122 958,-116 964,-110 970,-110"/>
<text text-anchor="middle" x="1068.5" y="-159.4" font-family="Times,serif" font-size="12.00">Niveau accu</text>
<polyline fill="none" stroke="black" points="958,-152 1179,-152 "/>
<text text-anchor="middle" x="1068.5" y="-138.4" font-family="Times,serif" font-size="12.00">Jupyter</text>
<polyline fill="none" stroke="black" points="958,-131 1179,-131 "/>
<text text-anchor="middle" x="1068.5" y="-117.4" font-family="Times,serif" font-size="12.00">in &#45; uit + productie = accumulatie</text>
</g>
<!-- node_opbrengst&#45;&gt;node_accu -->
<g id="edge8" class="edge">
<title>node_opbrengst:f0&#45;&gt;node_accu:f0</title>
<path fill="none" stroke="black" d="M922,-162.5C934,-162.5 939.25,-162.5 947.88,-162.5"/>
<polygon fill="black" stroke="black" points="948,-166 958,-162.5 948,-159 948,-166"/>
</g>
<!-- node_zon -->
<g id="node8" class="node">
<title>node_zon</title>
<path fill="green" stroke="black" d="M253.5,-155.5C253.5,-155.5 349.5,-155.5 349.5,-155.5 355.5,-155.5 361.5,-161.5 361.5,-167.5 361.5,-167.5 361.5,-219.5 361.5,-219.5 361.5,-225.5 355.5,-231.5 349.5,-231.5 349.5,-231.5 253.5,-231.5 253.5,-231.5 247.5,-231.5 241.5,-225.5 241.5,-219.5 241.5,-219.5 241.5,-167.5 241.5,-167.5 241.5,-161.5 247.5,-155.5 253.5,-155.5"/>
<text text-anchor="middle" x="301.5" y="-217.9" font-family="Times,serif" font-size="12.00">Stand van de zon</text>
<polyline fill="none" stroke="black" points="241.5,-210.5 361.5,-210.5 "/>
<text text-anchor="middle" x="301.5" y="-196.9" font-family="Times,serif" font-size="12.00">PySolar</text>
<polyline fill="none" stroke="black" points="241.5,-189.5 361.5,-189.5 "/>
<text text-anchor="middle" x="301.5" y="-175.9" font-family="Times,serif" font-size="12.00">Elevation</text>
<text text-anchor="middle" x="301.5" y="-162.9" font-family="Times,serif" font-size="12.00">Azimuth</text>
</g>
<!-- node_zon&#45;&gt;node_combineren -->
<g id="edge9" class="edge">
<title>node_zon:f0&#45;&gt;node_combineren:f0</title>
<path fill="none" stroke="black" d="M362.5,-221.5C395.57,-221.5 393.99,-182.75 420.02,-174.88"/>
<polygon fill="black" stroke="black" points="420.58,-178.34 430,-173.5 419.61,-171.41 420.58,-178.34"/>
</g>
<!-- node_combineren&#45;&gt;node2 -->
<g id="edge5" class="edge">
<title>node_combineren:s&#45;&gt;node2:s</title>
<path fill="none" stroke="black" d="M504.5,-140.5C504.5,-48.93 317.05,18.36 302.41,-61.08"/>
<polygon fill="black" stroke="black" points="298.88,-61.23 301.5,-71.5 305.85,-61.84 298.88,-61.23"/>
</g>
<!-- node_combineren&#45;&gt;node_ML -->
<g id="edge6" class="edge">
<title>node_combineren&#45;&gt;node_ML:f0</title>
<path fill="none" stroke="black" d="M579.13,-162.5C587.65,-162.5 596.32,-162.5 604.79,-162.5"/>
<polygon fill="black" stroke="black" points="605,-166 615,-162.5 605,-159 605,-166"/>
</g>
</g>
</svg>
