<?xml version="1.0" encoding="UTF-8" standalone="no"?>
<!DOCTYPE svg PUBLIC "-//W3C//DTD SVG 1.1//EN"
 "http://www.w3.org/Graphics/SVG/1.1/DTD/svg11.dtd">
<!-- Generated by graphviz version 2.48.0 (0)
 -->
<!-- Title: g Pages: 1 -->
<svg width="915pt" height="289pt"
 viewBox="0.00 0.00 915.00 289.00" xmlns="http://www.w3.org/2000/svg" xmlns:xlink="http://www.w3.org/1999/xlink">
<g id="graph0" class="graph" transform="scale(1 1) rotate(0) translate(4 285)">
<title>g</title>
<polygon fill="white" stroke="transparent" points="-4,4 -4,-285 911,-285 911,4 -4,4"/>
<!-- node0 -->
<g id="node1" class="node">
<title>node0</title>
<path fill="#f7f7f7" stroke="black" d="M12,-176.5C12,-176.5 234,-176.5 234,-176.5 240,-176.5 246,-182.5 246,-188.5 246,-188.5 246,-268.5 246,-268.5 246,-274.5 240,-280.5 234,-280.5 234,-280.5 12,-280.5 12,-280.5 6,-280.5 0,-274.5 0,-268.5 0,-268.5 0,-188.5 0,-188.5 0,-182.5 6,-176.5 12,-176.5"/>
<text text-anchor="middle" x="123" y="-263.7" font-family="Times,serif" font-size="16.00">Ophalen data SolarEdge</text>
<polyline fill="none" stroke="black" points="0,-254.5 246,-254.5 "/>
<text text-anchor="middle" x="123" y="-237.7" font-family="Times,serif" font-size="16.00">API</text>
<polyline fill="none" stroke="black" points="0,-228.5 246,-228.5 "/>
<text text-anchor="middle" x="123" y="-211.7" font-family="Times,serif" font-size="16.00">Python</text>
<polyline fill="none" stroke="black" points="0,-202.5 246,-202.5 "/>
<text text-anchor="middle" x="123" y="-185.7" font-family="Times,serif" font-size="16.00">Alleen nieuwe data ophalen</text>
</g>
<!-- node2 -->
<g id="node3" class="node">
<title>node2</title>
<path fill="#f7f7f7" stroke="black" d="M311,-123.5C311,-123.5 445,-123.5 445,-123.5 451,-123.5 457,-129.5 457,-135.5 457,-135.5 457,-207.5 457,-207.5 457,-213.5 451,-219.5 445,-219.5 445,-219.5 311,-219.5 311,-219.5 305,-219.5 299,-213.5 299,-207.5 299,-207.5 299,-135.5 299,-135.5 299,-129.5 305,-123.5 311,-123.5"/>
<text text-anchor="middle" x="378" y="-202.7" font-family="Times,serif" font-size="16.00">Data storage</text>
<polyline fill="none" stroke="black" points="299,-193.5 457,-193.5 "/>
<text text-anchor="middle" x="378" y="-176.7" font-family="Times,serif" font-size="16.00">SQL</text>
<polyline fill="none" stroke="black" points="299,-167.5 457,-167.5 "/>
<text text-anchor="middle" x="378" y="-150.7" font-family="Times,serif" font-size="16.00">local server (RPi)</text>
<text text-anchor="middle" x="378" y="-132.7" font-family="Times,serif" font-size="16.00">of SQLite</text>
</g>
<!-- node0&#45;&gt;node2 -->
<g id="edge2" class="edge">
<title>node0:f0&#45;&gt;node2:f0</title>
<path fill="none" stroke="black" d="M246,-267.5C277.73,-267.5 265.93,-219.11 288.14,-208.53"/>
<polygon fill="black" stroke="black" points="288.91,-211.94 298,-206.5 287.5,-205.09 288.91,-211.94"/>
</g>
<!-- node1 -->
<g id="node2" class="node">
<title>node1</title>
<path fill="#f7f7f7" stroke="black" d="M12,-53.5C12,-53.5 234,-53.5 234,-53.5 240,-53.5 246,-59.5 246,-65.5 246,-65.5 246,-145.5 246,-145.5 246,-151.5 240,-157.5 234,-157.5 234,-157.5 12,-157.5 12,-157.5 6,-157.5 0,-151.5 0,-145.5 0,-145.5 0,-65.5 0,-65.5 0,-59.5 6,-53.5 12,-53.5"/>
<text text-anchor="middle" x="123" y="-140.7" font-family="Times,serif" font-size="16.00">Ophalen data weer</text>
<polyline fill="none" stroke="black" points="0,-131.5 246,-131.5 "/>
<text text-anchor="middle" x="123" y="-114.7" font-family="Times,serif" font-size="16.00">API</text>
<polyline fill="none" stroke="black" points="0,-105.5 246,-105.5 "/>
<text text-anchor="middle" x="123" y="-88.7" font-family="Times,serif" font-size="16.00">Python</text>
<polyline fill="none" stroke="black" points="0,-79.5 246,-79.5 "/>
<text text-anchor="middle" x="123" y="-62.7" font-family="Times,serif" font-size="16.00">Alleen nieuwe data ophalen</text>
</g>
<!-- node1&#45;&gt;node2 -->
<g id="edge3" class="edge">
<title>node1:f0&#45;&gt;node2:f0</title>
<path fill="none" stroke="black" d="M246,-144.5C278.03,-144.5 265.73,-193.68 288.06,-204.44"/>
<polygon fill="black" stroke="black" points="287.5,-207.9 298,-206.5 288.92,-201.04 287.5,-207.9"/>
</g>
<!-- node_ML -->
<g id="node5" class="node">
<title>node_ML</title>
<path fill="#f7f7f7" stroke="black" d="M522,-57.5C522,-57.5 689,-57.5 689,-57.5 695,-57.5 701,-63.5 701,-69.5 701,-69.5 701,-149.5 701,-149.5 701,-155.5 695,-161.5 689,-161.5 689,-161.5 522,-161.5 522,-161.5 516,-161.5 510,-155.5 510,-149.5 510,-149.5 510,-69.5 510,-69.5 510,-63.5 516,-57.5 522,-57.5"/>
<text text-anchor="middle" x="605.5" y="-144.7" font-family="Times,serif" font-size="16.00">Machine learning</text>
<polyline fill="none" stroke="black" points="510,-135.5 701,-135.5 "/>
<text text-anchor="middle" x="605.5" y="-118.7" font-family="Times,serif" font-size="16.00">Sk&#45;learn</text>
<polyline fill="none" stroke="black" points="510,-109.5 701,-109.5 "/>
<text text-anchor="middle" x="605.5" y="-92.7" font-family="Times,serif" font-size="16.00">Jupyter/Pandas</text>
<polyline fill="none" stroke="black" points="510,-83.5 701,-83.5 "/>
<text text-anchor="middle" x="605.5" y="-66.7" font-family="Times,serif" font-size="16.00">Leren en voorspellen</text>
</g>
<!-- node2&#45;&gt;node_ML -->
<g id="edge4" class="edge">
<title>node2:f0&#45;&gt;node_ML:f0</title>
<path fill="none" stroke="black" d="M458,-206.5C488.7,-206.5 478.62,-160.9 500.08,-150.56"/>
<polygon fill="black" stroke="black" points="500.92,-153.96 510,-148.5 499.5,-147.11 500.92,-153.96"/>
</g>
<!-- node_weer -->
<g id="node4" class="node">
<title>node_weer</title>
<path fill="#f7f7f7" stroke="black" d="M294,-0.5C294,-0.5 462,-0.5 462,-0.5 468,-0.5 474,-6.5 474,-12.5 474,-12.5 474,-92.5 474,-92.5 474,-98.5 468,-104.5 462,-104.5 462,-104.5 294,-104.5 294,-104.5 288,-104.5 282,-98.5 282,-92.5 282,-92.5 282,-12.5 282,-12.5 282,-6.5 288,-0.5 294,-0.5"/>
<text text-anchor="middle" x="378" y="-87.7" font-family="Times,serif" font-size="16.00">Weersvoorspelling</text>
<polyline fill="none" stroke="black" points="282,-78.5 474,-78.5 "/>
<text text-anchor="middle" x="378" y="-61.7" font-family="Times,serif" font-size="16.00">API</text>
<polyline fill="none" stroke="black" points="282,-52.5 474,-52.5 "/>
<text text-anchor="middle" x="378" y="-35.7" font-family="Times,serif" font-size="16.00">Python/Jupyter</text>
<polyline fill="none" stroke="black" points="282,-26.5 474,-26.5 "/>
<text text-anchor="middle" x="378" y="-9.7" font-family="Times,serif" font-size="16.00">Ophalen voorspelling</text>
</g>
<!-- node_weer&#45;&gt;node_ML -->
<g id="edge1" class="edge">
<title>node_weer:f0&#45;&gt;node_ML:f0</title>
<path fill="none" stroke="black" d="M474,-91.5C499.75,-91.5 485.7,-133.6 500.26,-145.44"/>
<polygon fill="black" stroke="black" points="499.41,-148.84 510,-148.5 501.51,-142.16 499.41,-148.84"/>
</g>
<!-- node_opbrengst -->
<g id="node6" class="node">
<title>node_opbrengst</title>
<path fill="#f7f7f7" stroke="black" d="M749,-74.5C749,-74.5 895,-74.5 895,-74.5 901,-74.5 907,-80.5 907,-86.5 907,-86.5 907,-158.5 907,-158.5 907,-164.5 901,-170.5 895,-170.5 895,-170.5 749,-170.5 749,-170.5 743,-170.5 737,-164.5 737,-158.5 737,-158.5 737,-86.5 737,-86.5 737,-80.5 743,-74.5 749,-74.5"/>
<text text-anchor="middle" x="822" y="-153.7" font-family="Times,serif" font-size="16.00">Opbrengst per uur</text>
<text text-anchor="middle" x="822" y="-135.7" font-family="Times,serif" font-size="16.00">of per dag</text>
<polyline fill="none" stroke="black" points="737,-126.5 907,-126.5 "/>
<text text-anchor="middle" x="822" y="-109.7" font-family="Times,serif" font-size="16.00">Jupyter/Pandas</text>
<polyline fill="none" stroke="black" points="737,-100.5 907,-100.5 "/>
<text text-anchor="middle" x="822" y="-83.7" font-family="Times,serif" font-size="16.00">dag = Σ uren</text>
</g>
<!-- node_ML&#45;&gt;node_opbrengst -->
<g id="edge5" class="edge">
<title>node_ML:f0&#45;&gt;node_opbrengst:f0</title>
<path fill="none" stroke="black" d="M701,-148.5C713,-148.5 718.25,-148.5 726.88,-148.5"/>
<polygon fill="black" stroke="black" points="727,-152 737,-148.5 727,-145 727,-152"/>
</g>
</g>
</svg>
