<?xml version="1.0" encoding="UTF-8" standalone="no"?>
<!DOCTYPE svg PUBLIC "-//W3C//DTD SVG 1.1//EN"
 "http://www.w3.org/Graphics/SVG/1.1/DTD/svg11.dtd">
<!-- Generated by graphviz version 2.48.0 (0)
 -->
<!-- Title: g Pages: 1 -->
<svg width="1047pt" height="356pt"
 viewBox="0.00 0.00 1047.00 356.00" xmlns="http://www.w3.org/2000/svg" xmlns:xlink="http://www.w3.org/1999/xlink">
<g id="graph0" class="graph" transform="scale(1 1) rotate(0) translate(4 352)">
<title>g</title>
<polygon fill="white" stroke="transparent" points="-4,4 -4,-352 1043,-352 1043,4 -4,4"/>
<!-- node0 -->
<g id="node1" class="node">
<title>node0</title>
<path fill="#f7f7f7" stroke="black" d="M25,-263.5C25,-263.5 184,-263.5 184,-263.5 190,-263.5 196,-269.5 196,-275.5 196,-275.5 196,-335.5 196,-335.5 196,-341.5 190,-347.5 184,-347.5 184,-347.5 25,-347.5 25,-347.5 19,-347.5 13,-341.5 13,-335.5 13,-335.5 13,-275.5 13,-275.5 13,-269.5 19,-263.5 25,-263.5"/>
<text text-anchor="middle" x="104.5" y="-333.9" font-family="Times,serif" font-size="12.00">Ophalen data SolarEdge</text>
<polyline fill="none" stroke="black" points="13,-326.5 196,-326.5 "/>
<text text-anchor="middle" x="104.5" y="-312.9" font-family="Times,serif" font-size="12.00">API</text>
<polyline fill="none" stroke="black" points="13,-305.5 196,-305.5 "/>
<text text-anchor="middle" x="104.5" y="-291.9" font-family="Times,serif" font-size="12.00">Python</text>
<polyline fill="none" stroke="black" points="13,-284.5 196,-284.5 "/>
<text text-anchor="middle" x="104.5" y="-270.9" font-family="Times,serif" font-size="12.00">Alleen nieuwe data ophalen</text>
</g>
<!-- node2 -->
<g id="node3" class="node">
<title>node2</title>
<path fill="#f7f7f7" stroke="black" d="M257,-199C257,-199 394,-199 394,-199 400,-199 406,-205 406,-211 406,-211 406,-284 406,-284 406,-290 400,-296 394,-296 394,-296 257,-296 257,-296 251,-296 245,-290 245,-284 245,-284 245,-211 245,-211 245,-205 251,-199 257,-199"/>
<text text-anchor="middle" x="325.5" y="-282.4" font-family="Times,serif" font-size="12.00">Data storage</text>
<polyline fill="none" stroke="black" points="245,-275 406,-275 "/>
<text text-anchor="middle" x="325.5" y="-261.4" font-family="Times,serif" font-size="12.00">SQL</text>
<polyline fill="none" stroke="black" points="245,-254 406,-254 "/>
<text text-anchor="middle" x="325.5" y="-240.4" font-family="Times,serif" font-size="12.00">local server (RPi)</text>
<text text-anchor="middle" x="325.5" y="-227.4" font-family="Times,serif" font-size="12.00">of SQLite</text>
<polyline fill="none" stroke="black" points="245,-220 406,-220 "/>
<text text-anchor="middle" x="325.5" y="-206.4" font-family="Times,serif" font-size="12.00">Data per uur of per dag</text>
</g>
<!-- node0&#45;&gt;node2 -->
<g id="edge2" class="edge">
<title>node0:f0&#45;&gt;node2:f0</title>
<path fill="none" stroke="black" d="M197.5,-337.5C224.64,-337.5 216.89,-298.4 234.77,-288.01"/>
<polygon fill="black" stroke="black" points="236.12,-291.28 245,-285.5 234.45,-284.48 236.12,-291.28"/>
</g>
<!-- node1 -->
<g id="node2" class="node">
<title>node1</title>
<path fill="#f7f7f7" stroke="black" d="M12,-139C12,-139 197,-139 197,-139 203,-139 209,-145 209,-151 209,-151 209,-232 209,-232 209,-238 203,-244 197,-244 197,-244 12,-244 12,-244 6,-244 0,-238 0,-232 0,-232 0,-151 0,-151 0,-145 6,-139 12,-139"/>
<text text-anchor="middle" x="104.5" y="-230.4" font-family="Times,serif" font-size="12.00">Ophalen data weer</text>
<polyline fill="none" stroke="black" points="0,-223 209,-223 "/>
<text text-anchor="middle" x="104.5" y="-209.4" font-family="Times,serif" font-size="12.00">API</text>
<polyline fill="none" stroke="black" points="0,-202 209,-202 "/>
<text text-anchor="middle" x="104.5" y="-188.4" font-family="Times,serif" font-size="12.00">Python</text>
<polyline fill="none" stroke="black" points="0,-181 209,-181 "/>
<text text-anchor="middle" x="104.5" y="-167.4" font-family="Times,serif" font-size="12.00">Alleen nieuwe data ophalen</text>
<polyline fill="none" stroke="black" points="0,-160 209,-160 "/>
<text text-anchor="middle" x="104.5" y="-146.4" font-family="Times,serif" font-size="12.00">KNMI/Buienrader/Openweather</text>
</g>
<!-- node1&#45;&gt;node2 -->
<g id="edge3" class="edge">
<title>node1:f0&#45;&gt;node2:f0</title>
<path fill="none" stroke="black" d="M209,-233.5C232.94,-233.5 221.83,-271.21 235.36,-282.4"/>
<polygon fill="black" stroke="black" points="234.41,-285.77 245,-285.5 236.55,-279.11 234.41,-285.77"/>
</g>
<!-- node_ML -->
<g id="node5" class="node">
<title>node_ML</title>
<path fill="#f7f7f7" stroke="black" d="M454,-61.5C454,-61.5 606,-61.5 606,-61.5 612,-61.5 618,-67.5 618,-73.5 618,-73.5 618,-167.5 618,-167.5 618,-173.5 612,-179.5 606,-179.5 606,-179.5 454,-179.5 454,-179.5 448,-179.5 442,-173.5 442,-167.5 442,-167.5 442,-73.5 442,-73.5 442,-67.5 448,-61.5 454,-61.5"/>
<text text-anchor="middle" x="530" y="-165.9" font-family="Times,serif" font-size="12.00">Machine learning</text>
<polyline fill="none" stroke="black" points="442,-158.5 618,-158.5 "/>
<text text-anchor="middle" x="530" y="-144.9" font-family="Times,serif" font-size="12.00"> </text>
<polyline fill="none" stroke="black" points="442,-137.5 618,-137.5 "/>
<text text-anchor="middle" x="530" y="-123.9" font-family="Times,serif" font-size="12.00">Jupyter/Pandas</text>
<polyline fill="none" stroke="black" points="442,-116.5 618,-116.5 "/>
<text text-anchor="middle" x="530" y="-102.9" font-family="Times,serif" font-size="12.00">Leren en voorspellen</text>
<polyline fill="none" stroke="black" points="442,-95.5 618,-95.5 "/>
<text text-anchor="middle" x="530" y="-81.9" font-family="Times,serif" font-size="12.00">Sk&#45;learn/Keras/Tensorflow</text>
<text text-anchor="middle" x="530" y="-68.9" font-family="Times,serif" font-size="12.00">hardware nodig?</text>
</g>
<!-- node2&#45;&gt;node_ML -->
<g id="edge4" class="edge">
<title>node2:f0&#45;&gt;node_ML:f0</title>
<path fill="none" stroke="black" d="M406,-285.5C455.97,-285.5 398.01,-186.08 431.96,-171.32"/>
<polygon fill="black" stroke="black" points="432.79,-174.73 442,-169.5 431.54,-167.84 432.79,-174.73"/>
</g>
<!-- node_weer -->
<g id="node4" class="node">
<title>node_weer</title>
<path fill="#f7f7f7" stroke="black" d="M265,-95.5C265,-95.5 386,-95.5 386,-95.5 392,-95.5 398,-101.5 398,-107.5 398,-107.5 398,-167.5 398,-167.5 398,-173.5 392,-179.5 386,-179.5 386,-179.5 265,-179.5 265,-179.5 259,-179.5 253,-173.5 253,-167.5 253,-167.5 253,-107.5 253,-107.5 253,-101.5 259,-95.5 265,-95.5"/>
<text text-anchor="middle" x="325.5" y="-165.9" font-family="Times,serif" font-size="12.00">Weersvoorspelling</text>
<polyline fill="none" stroke="black" points="253,-158.5 398,-158.5 "/>
<text text-anchor="middle" x="325.5" y="-144.9" font-family="Times,serif" font-size="12.00">API</text>
<polyline fill="none" stroke="black" points="253,-137.5 398,-137.5 "/>
<text text-anchor="middle" x="325.5" y="-123.9" font-family="Times,serif" font-size="12.00">Python/Jupyter</text>
<polyline fill="none" stroke="black" points="253,-116.5 398,-116.5 "/>
<text text-anchor="middle" x="325.5" y="-102.9" font-family="Times,serif" font-size="12.00">Ophalen voorspelling</text>
</g>
<!-- node_weer&#45;&gt;node_ML -->
<g id="edge1" class="edge">
<title>node_weer:f0&#45;&gt;node_ML:f0</title>
<path fill="none" stroke="black" d="M399.5,-169.5C414.4,-169.5 420.49,-169.5 431.67,-169.5"/>
<polygon fill="black" stroke="black" points="432,-173 442,-169.5 432,-166 432,-173"/>
</g>
<!-- node_opbrengst -->
<g id="node6" class="node">
<title>node_opbrengst</title>
<path fill="#f7f7f7" stroke="black" d="M666,-110.5C666,-110.5 770,-110.5 770,-110.5 776,-110.5 782,-116.5 782,-122.5 782,-122.5 782,-174.5 782,-174.5 782,-180.5 776,-186.5 770,-186.5 770,-186.5 666,-186.5 666,-186.5 660,-186.5 654,-180.5 654,-174.5 654,-174.5 654,-122.5 654,-122.5 654,-116.5 660,-110.5 666,-110.5"/>
<text text-anchor="middle" x="718" y="-172.9" font-family="Times,serif" font-size="12.00">Opbrengst per uur</text>
<text text-anchor="middle" x="718" y="-159.9" font-family="Times,serif" font-size="12.00">of per dag</text>
<polyline fill="none" stroke="black" points="654,-152.5 782,-152.5 "/>
<text text-anchor="middle" x="718" y="-138.9" font-family="Times,serif" font-size="12.00">Jupyter/Pandas</text>
<polyline fill="none" stroke="black" points="654,-131.5 782,-131.5 "/>
<text text-anchor="middle" x="718" y="-117.9" font-family="Times,serif" font-size="12.00">dag = Σ uren</text>
</g>
<!-- node_ML&#45;&gt;node_opbrengst -->
<g id="edge5" class="edge">
<title>node_ML:f0&#45;&gt;node_opbrengst:f0</title>
<path fill="none" stroke="black" d="M618,-169.5C630,-169.5 635.25,-169.5 643.88,-169.5"/>
<polygon fill="black" stroke="black" points="644,-173 654,-169.5 644,-166 644,-173"/>
</g>
<!-- node_accu -->
<g id="node7" class="node">
<title>node_accu</title>
<path fill="#f7f7f7" stroke="black" d="M830,-117C830,-117 1027,-117 1027,-117 1033,-117 1039,-123 1039,-129 1039,-129 1039,-168 1039,-168 1039,-174 1033,-180 1027,-180 1027,-180 830,-180 830,-180 824,-180 818,-174 818,-168 818,-168 818,-129 818,-129 818,-123 824,-117 830,-117"/>
<text text-anchor="middle" x="928.5" y="-166.4" font-family="Times,serif" font-size="12.00">Niveau accu</text>
<polyline fill="none" stroke="black" points="818,-159 1039,-159 "/>
<text text-anchor="middle" x="928.5" y="-145.4" font-family="Times,serif" font-size="12.00">Jupyter</text>
<polyline fill="none" stroke="black" points="818,-138 1039,-138 "/>
<text text-anchor="middle" x="928.5" y="-124.4" font-family="Times,serif" font-size="12.00">in &#45; uit + productie = accumulatie</text>
</g>
<!-- node_opbrengst&#45;&gt;node_accu -->
<g id="edge6" class="edge">
<title>node_opbrengst:f0&#45;&gt;node_accu:f0</title>
<path fill="none" stroke="black" d="M782,-169.5C794,-169.5 799.25,-169.5 807.88,-169.5"/>
<polygon fill="black" stroke="black" points="808,-173 818,-169.5 808,-166 808,-173"/>
</g>
<!-- node_zon -->
<g id="node8" class="node">
<title>node_zon</title>
<path fill="#f7f7f7" stroke="black" d="M277.5,-0.5C277.5,-0.5 373.5,-0.5 373.5,-0.5 379.5,-0.5 385.5,-6.5 385.5,-12.5 385.5,-12.5 385.5,-64.5 385.5,-64.5 385.5,-70.5 379.5,-76.5 373.5,-76.5 373.5,-76.5 277.5,-76.5 277.5,-76.5 271.5,-76.5 265.5,-70.5 265.5,-64.5 265.5,-64.5 265.5,-12.5 265.5,-12.5 265.5,-6.5 271.5,-0.5 277.5,-0.5"/>
<text text-anchor="middle" x="325.5" y="-62.9" font-family="Times,serif" font-size="12.00">Stand van de zon</text>
<polyline fill="none" stroke="black" points="265.5,-55.5 385.5,-55.5 "/>
<text text-anchor="middle" x="325.5" y="-41.9" font-family="Times,serif" font-size="12.00">Elevation</text>
<text text-anchor="middle" x="325.5" y="-28.9" font-family="Times,serif" font-size="12.00">Azimuth</text>
<polyline fill="none" stroke="black" points="265.5,-21.5 385.5,-21.5 "/>
<text text-anchor="middle" x="325.5" y="-7.9" font-family="Times,serif" font-size="12.00"> </text>
</g>
<!-- node_zon&#45;&gt;node_ML -->
<g id="edge7" class="edge">
<title>node_zon:f0&#45;&gt;node_ML:f0</title>
<path fill="none" stroke="black" d="M386.5,-66.5C434.64,-66.5 396.65,-154.78 432,-167.88"/>
<polygon fill="black" stroke="black" points="431.57,-171.36 442,-169.5 432.69,-164.45 431.57,-171.36"/>
</g>
</g>
</svg>
