<?xml version="1.0" encoding="UTF-8" standalone="no"?>
<!DOCTYPE svg PUBLIC "-//W3C//DTD SVG 1.1//EN"
 "http://www.w3.org/Graphics/SVG/1.1/DTD/svg11.dtd">
<!-- Generated by graphviz version 2.48.0 (0)
 -->
<!-- Title: g Pages: 1 -->
<svg width="1047pt" height="261pt"
 viewBox="0.00 0.00 1047.00 261.00" xmlns="http://www.w3.org/2000/svg" xmlns:xlink="http://www.w3.org/1999/xlink">
<g id="graph0" class="graph" transform="scale(1 1) rotate(0) translate(4 257)">
<title>g</title>
<polygon fill="white" stroke="transparent" points="-4,4 -4,-257 1043,-257 1043,4 -4,4"/>
<!-- node0 -->
<g id="node1" class="node">
<title>node0</title>
<path fill="#f7f7f7" stroke="black" d="M25,-168.5C25,-168.5 184,-168.5 184,-168.5 190,-168.5 196,-174.5 196,-180.5 196,-180.5 196,-240.5 196,-240.5 196,-246.5 190,-252.5 184,-252.5 184,-252.5 25,-252.5 25,-252.5 19,-252.5 13,-246.5 13,-240.5 13,-240.5 13,-180.5 13,-180.5 13,-174.5 19,-168.5 25,-168.5"/>
<text text-anchor="middle" x="104.5" y="-238.9" font-family="Times,serif" font-size="12.00">Ophalen data SolarEdge</text>
<polyline fill="none" stroke="black" points="13,-231.5 196,-231.5 "/>
<text text-anchor="middle" x="104.5" y="-217.9" font-family="Times,serif" font-size="12.00">API</text>
<polyline fill="none" stroke="black" points="13,-210.5 196,-210.5 "/>
<text text-anchor="middle" x="104.5" y="-196.9" font-family="Times,serif" font-size="12.00">Python</text>
<polyline fill="none" stroke="black" points="13,-189.5 196,-189.5 "/>
<text text-anchor="middle" x="104.5" y="-175.9" font-family="Times,serif" font-size="12.00">Alleen nieuwe data ophalen</text>
</g>
<!-- node2 -->
<g id="node3" class="node">
<title>node2</title>
<path fill="#f7f7f7" stroke="black" d="M257,-104C257,-104 394,-104 394,-104 400,-104 406,-110 406,-116 406,-116 406,-189 406,-189 406,-195 400,-201 394,-201 394,-201 257,-201 257,-201 251,-201 245,-195 245,-189 245,-189 245,-116 245,-116 245,-110 251,-104 257,-104"/>
<text text-anchor="middle" x="325.5" y="-187.4" font-family="Times,serif" font-size="12.00">Data storage</text>
<polyline fill="none" stroke="black" points="245,-180 406,-180 "/>
<text text-anchor="middle" x="325.5" y="-166.4" font-family="Times,serif" font-size="12.00">SQL</text>
<polyline fill="none" stroke="black" points="245,-159 406,-159 "/>
<text text-anchor="middle" x="325.5" y="-145.4" font-family="Times,serif" font-size="12.00">local server (RPi)</text>
<text text-anchor="middle" x="325.5" y="-132.4" font-family="Times,serif" font-size="12.00">of SQLite</text>
<polyline fill="none" stroke="black" points="245,-125 406,-125 "/>
<text text-anchor="middle" x="325.5" y="-111.4" font-family="Times,serif" font-size="12.00">Data per uur of per dag</text>
</g>
<!-- node0&#45;&gt;node2 -->
<g id="edge2" class="edge">
<title>node0:f0&#45;&gt;node2:f0</title>
<path fill="none" stroke="black" d="M197.5,-242.5C224.64,-242.5 216.89,-203.4 234.77,-193.01"/>
<polygon fill="black" stroke="black" points="236.12,-196.28 245,-190.5 234.45,-189.48 236.12,-196.28"/>
</g>
<!-- node1 -->
<g id="node2" class="node">
<title>node1</title>
<path fill="#f7f7f7" stroke="black" d="M12,-44C12,-44 197,-44 197,-44 203,-44 209,-50 209,-56 209,-56 209,-137 209,-137 209,-143 203,-149 197,-149 197,-149 12,-149 12,-149 6,-149 0,-143 0,-137 0,-137 0,-56 0,-56 0,-50 6,-44 12,-44"/>
<text text-anchor="middle" x="104.5" y="-135.4" font-family="Times,serif" font-size="12.00">Ophalen data weer</text>
<polyline fill="none" stroke="black" points="0,-128 209,-128 "/>
<text text-anchor="middle" x="104.5" y="-114.4" font-family="Times,serif" font-size="12.00">API</text>
<polyline fill="none" stroke="black" points="0,-107 209,-107 "/>
<text text-anchor="middle" x="104.5" y="-93.4" font-family="Times,serif" font-size="12.00">Python</text>
<polyline fill="none" stroke="black" points="0,-86 209,-86 "/>
<text text-anchor="middle" x="104.5" y="-72.4" font-family="Times,serif" font-size="12.00">Alleen nieuwe data ophalen</text>
<polyline fill="none" stroke="black" points="0,-65 209,-65 "/>
<text text-anchor="middle" x="104.5" y="-51.4" font-family="Times,serif" font-size="12.00">KNMI/Buienrader/Openweather</text>
</g>
<!-- node1&#45;&gt;node2 -->
<g id="edge3" class="edge">
<title>node1:f0&#45;&gt;node2:f0</title>
<path fill="none" stroke="black" d="M209,-138.5C232.94,-138.5 221.83,-176.21 235.36,-187.4"/>
<polygon fill="black" stroke="black" points="234.41,-190.77 245,-190.5 236.55,-184.11 234.41,-190.77"/>
</g>
<!-- node_ML -->
<g id="node5" class="node">
<title>node_ML</title>
<path fill="#f7f7f7" stroke="black" d="M454,-24.5C454,-24.5 606,-24.5 606,-24.5 612,-24.5 618,-30.5 618,-36.5 618,-36.5 618,-130.5 618,-130.5 618,-136.5 612,-142.5 606,-142.5 606,-142.5 454,-142.5 454,-142.5 448,-142.5 442,-136.5 442,-130.5 442,-130.5 442,-36.5 442,-36.5 442,-30.5 448,-24.5 454,-24.5"/>
<text text-anchor="middle" x="530" y="-128.9" font-family="Times,serif" font-size="12.00">Machine learning</text>
<polyline fill="none" stroke="black" points="442,-121.5 618,-121.5 "/>
<text text-anchor="middle" x="530" y="-107.9" font-family="Times,serif" font-size="12.00"> </text>
<polyline fill="none" stroke="black" points="442,-100.5 618,-100.5 "/>
<text text-anchor="middle" x="530" y="-86.9" font-family="Times,serif" font-size="12.00">Jupyter/Pandas</text>
<polyline fill="none" stroke="black" points="442,-79.5 618,-79.5 "/>
<text text-anchor="middle" x="530" y="-65.9" font-family="Times,serif" font-size="12.00">Leren en voorspellen</text>
<polyline fill="none" stroke="black" points="442,-58.5 618,-58.5 "/>
<text text-anchor="middle" x="530" y="-44.9" font-family="Times,serif" font-size="12.00">Sk&#45;learn/Keras/Tensorflow</text>
<text text-anchor="middle" x="530" y="-31.9" font-family="Times,serif" font-size="12.00">hardware nodig?</text>
</g>
<!-- node2&#45;&gt;node_ML -->
<g id="edge4" class="edge">
<title>node2:f0&#45;&gt;node_ML:f0</title>
<path fill="none" stroke="black" d="M406,-190.5C432.07,-190.5 417.51,-147.67 432.16,-135.62"/>
<polygon fill="black" stroke="black" points="433.52,-138.86 442,-132.5 431.41,-132.18 433.52,-138.86"/>
</g>
<!-- node_weer -->
<g id="node4" class="node">
<title>node_weer</title>
<path fill="#f7f7f7" stroke="black" d="M265,-0.5C265,-0.5 386,-0.5 386,-0.5 392,-0.5 398,-6.5 398,-12.5 398,-12.5 398,-72.5 398,-72.5 398,-78.5 392,-84.5 386,-84.5 386,-84.5 265,-84.5 265,-84.5 259,-84.5 253,-78.5 253,-72.5 253,-72.5 253,-12.5 253,-12.5 253,-6.5 259,-0.5 265,-0.5"/>
<text text-anchor="middle" x="325.5" y="-70.9" font-family="Times,serif" font-size="12.00">Weersvoorspelling</text>
<polyline fill="none" stroke="black" points="253,-63.5 398,-63.5 "/>
<text text-anchor="middle" x="325.5" y="-49.9" font-family="Times,serif" font-size="12.00">API</text>
<polyline fill="none" stroke="black" points="253,-42.5 398,-42.5 "/>
<text text-anchor="middle" x="325.5" y="-28.9" font-family="Times,serif" font-size="12.00">Python/Jupyter</text>
<polyline fill="none" stroke="black" points="253,-21.5 398,-21.5 "/>
<text text-anchor="middle" x="325.5" y="-7.9" font-family="Times,serif" font-size="12.00">Ophalen voorspelling</text>
</g>
<!-- node_weer&#45;&gt;node_ML -->
<g id="edge1" class="edge">
<title>node_weer:f0&#45;&gt;node_ML:f0</title>
<path fill="none" stroke="black" d="M399.5,-74.5C427.46,-74.5 414.56,-118.91 432.31,-130.01"/>
<polygon fill="black" stroke="black" points="431.44,-133.4 442,-132.5 433.19,-126.62 431.44,-133.4"/>
</g>
<!-- node_opbrengst -->
<g id="node6" class="node">
<title>node_opbrengst</title>
<path fill="#f7f7f7" stroke="black" d="M666,-73.5C666,-73.5 770,-73.5 770,-73.5 776,-73.5 782,-79.5 782,-85.5 782,-85.5 782,-137.5 782,-137.5 782,-143.5 776,-149.5 770,-149.5 770,-149.5 666,-149.5 666,-149.5 660,-149.5 654,-143.5 654,-137.5 654,-137.5 654,-85.5 654,-85.5 654,-79.5 660,-73.5 666,-73.5"/>
<text text-anchor="middle" x="718" y="-135.9" font-family="Times,serif" font-size="12.00">Opbrengst per uur</text>
<text text-anchor="middle" x="718" y="-122.9" font-family="Times,serif" font-size="12.00">of per dag</text>
<polyline fill="none" stroke="black" points="654,-115.5 782,-115.5 "/>
<text text-anchor="middle" x="718" y="-101.9" font-family="Times,serif" font-size="12.00">Jupyter/Pandas</text>
<polyline fill="none" stroke="black" points="654,-94.5 782,-94.5 "/>
<text text-anchor="middle" x="718" y="-80.9" font-family="Times,serif" font-size="12.00">dag = Σ uren</text>
</g>
<!-- node_ML&#45;&gt;node_opbrengst -->
<g id="edge5" class="edge">
<title>node_ML:f0&#45;&gt;node_opbrengst:f0</title>
<path fill="none" stroke="black" d="M618,-132.5C630,-132.5 635.25,-132.5 643.88,-132.5"/>
<polygon fill="black" stroke="black" points="644,-136 654,-132.5 644,-129 644,-136"/>
</g>
<!-- node_accu -->
<g id="node7" class="node">
<title>node_accu</title>
<path fill="#f7f7f7" stroke="black" d="M830,-80C830,-80 1027,-80 1027,-80 1033,-80 1039,-86 1039,-92 1039,-92 1039,-131 1039,-131 1039,-137 1033,-143 1027,-143 1027,-143 830,-143 830,-143 824,-143 818,-137 818,-131 818,-131 818,-92 818,-92 818,-86 824,-80 830,-80"/>
<text text-anchor="middle" x="928.5" y="-129.4" font-family="Times,serif" font-size="12.00">Niveau accu</text>
<polyline fill="none" stroke="black" points="818,-122 1039,-122 "/>
<text text-anchor="middle" x="928.5" y="-108.4" font-family="Times,serif" font-size="12.00">Jupyter</text>
<polyline fill="none" stroke="black" points="818,-101 1039,-101 "/>
<text text-anchor="middle" x="928.5" y="-87.4" font-family="Times,serif" font-size="12.00">in &#45; uit + productie = accumulatie</text>
</g>
<!-- node_opbrengst&#45;&gt;node_accu -->
<g id="edge6" class="edge">
<title>node_opbrengst:f0&#45;&gt;node_accu:f0</title>
<path fill="none" stroke="black" d="M782,-132.5C794,-132.5 799.25,-132.5 807.88,-132.5"/>
<polygon fill="black" stroke="black" points="808,-136 818,-132.5 808,-129 808,-136"/>
</g>
</g>
</svg>
