<?xml version="1.0" encoding="UTF-8" standalone="no"?>
<!DOCTYPE svg PUBLIC "-//W3C//DTD SVG 1.1//EN"
 "http://www.w3.org/Graphics/SVG/1.1/DTD/svg11.dtd">
<!-- Generated by graphviz version 2.48.0 (0)
 -->
<!-- Title: g Pages: 1 -->
<svg width="1158pt" height="245pt"
 viewBox="0.00 0.00 1158.00 245.00" xmlns="http://www.w3.org/2000/svg" xmlns:xlink="http://www.w3.org/1999/xlink">
<g id="graph0" class="graph" transform="scale(1 1) rotate(0) translate(4 241)">
<title>g</title>
<polygon fill="white" stroke="transparent" points="-4,4 -4,-241 1154,-241 1154,4 -4,4"/>
<!-- node0 -->
<g id="node1" class="node">
<title>node0</title>
<path fill="green" stroke="black" d="M16,-103.5C16,-103.5 157,-103.5 157,-103.5 163,-103.5 169,-109.5 169,-115.5 169,-115.5 169,-175.5 169,-175.5 169,-181.5 163,-187.5 157,-187.5 157,-187.5 16,-187.5 16,-187.5 10,-187.5 4,-181.5 4,-175.5 4,-175.5 4,-115.5 4,-115.5 4,-109.5 10,-103.5 16,-103.5"/>
<text text-anchor="middle" x="86.5" y="-173.9" font-family="Times,serif" font-size="12.00">Ophalen data SolarEdge</text>
<polyline fill="none" stroke="black" points="4,-166.5 169,-166.5 "/>
<text text-anchor="middle" x="86.5" y="-152.9" font-family="Times,serif" font-size="12.00">API SolarEdge</text>
<polyline fill="none" stroke="black" points="4,-145.5 169,-145.5 "/>
<text text-anchor="middle" x="86.5" y="-131.9" font-family="Times,serif" font-size="12.00">Python</text>
<polyline fill="none" stroke="black" points="4,-124.5 169,-124.5 "/>
<text text-anchor="middle" x="86.5" y="-110.9" font-family="Times,serif" font-size="12.00">Verversen mogelijk</text>
</g>
<!-- node2 -->
<g id="node3" class="node">
<title>node2</title>
<path fill="green" stroke="black" d="M233.5,-73C233.5,-73 304.5,-73 304.5,-73 310.5,-73 316.5,-79 316.5,-85 316.5,-85 316.5,-124 316.5,-124 316.5,-130 310.5,-136 304.5,-136 304.5,-136 233.5,-136 233.5,-136 227.5,-136 221.5,-130 221.5,-124 221.5,-124 221.5,-85 221.5,-85 221.5,-79 227.5,-73 233.5,-73"/>
<text text-anchor="middle" x="269" y="-122.4" font-family="Times,serif" font-size="12.00">Data storage</text>
<polyline fill="none" stroke="black" points="221.5,-115 316.5,-115 "/>
<text text-anchor="middle" x="269" y="-101.4" font-family="Times,serif" font-size="12.00">SQL</text>
<polyline fill="none" stroke="black" points="221.5,-94 316.5,-94 "/>
<text text-anchor="middle" x="269" y="-80.4" font-family="Times,serif" font-size="12.00">SQLite3</text>
</g>
<!-- node0&#45;&gt;node2 -->
<g id="edge2" class="edge">
<title>node0:f0&#45;&gt;node2:f0</title>
<path fill="none" stroke="black" d="M170.5,-177.5C198.42,-177.5 190.95,-137.69 210.02,-127.73"/>
<polygon fill="black" stroke="black" points="211.01,-131.1 220,-125.5 209.48,-124.27 211.01,-131.1"/>
</g>
<!-- node1 -->
<g id="node2" class="node">
<title>node1</title>
<path fill="green" stroke="black" d="M12,-0.5C12,-0.5 161,-0.5 161,-0.5 167,-0.5 173,-6.5 173,-12.5 173,-12.5 173,-72.5 173,-72.5 173,-78.5 167,-84.5 161,-84.5 161,-84.5 12,-84.5 12,-84.5 6,-84.5 0,-78.5 0,-72.5 0,-72.5 0,-12.5 0,-12.5 0,-6.5 6,-0.5 12,-0.5"/>
<text text-anchor="middle" x="86.5" y="-70.9" font-family="Times,serif" font-size="12.00">Ophalen (oude) data weer</text>
<polyline fill="none" stroke="black" points="0,-63.5 173,-63.5 "/>
<text text-anchor="middle" x="86.5" y="-49.9" font-family="Times,serif" font-size="12.00">API KNMI</text>
<polyline fill="none" stroke="black" points="0,-42.5 173,-42.5 "/>
<text text-anchor="middle" x="86.5" y="-28.9" font-family="Times,serif" font-size="12.00">Python</text>
<polyline fill="none" stroke="black" points="0,-21.5 173,-21.5 "/>
<text text-anchor="middle" x="86.5" y="-7.9" font-family="Times,serif" font-size="12.00">Verversen mogelijk</text>
</g>
<!-- node1&#45;&gt;node2 -->
<g id="edge3" class="edge">
<title>node1:f0&#45;&gt;node2:f0</title>
<path fill="none" stroke="black" d="M173,-74.5C199.73,-74.5 192.26,-112.85 209.91,-123.04"/>
<polygon fill="black" stroke="black" points="209.46,-126.53 220,-125.5 211.11,-119.73 209.46,-126.53"/>
</g>
<!-- node_combineren -->
<g id="node9" class="node">
<title>node_combineren</title>
<path fill="green" stroke="black" d="M395,-91.5C395,-91.5 520,-91.5 520,-91.5 526,-91.5 532,-97.5 532,-103.5 532,-103.5 532,-121.5 532,-121.5 532,-127.5 526,-133.5 520,-133.5 520,-133.5 395,-133.5 395,-133.5 389,-133.5 383,-127.5 383,-121.5 383,-121.5 383,-103.5 383,-103.5 383,-97.5 389,-91.5 395,-91.5"/>
<text text-anchor="middle" x="457.5" y="-119.9" font-family="Times,serif" font-size="12.00">Gegevens combineren</text>
<polyline fill="none" stroke="black" points="383,-112.5 532,-112.5 "/>
<text text-anchor="middle" x="457.5" y="-98.9" font-family="Times,serif" font-size="12.00">Jupyter</text>
</g>
<!-- node2&#45;&gt;node_combineren -->
<g id="edge4" class="edge">
<title>node2:f0&#45;&gt;node_combineren:f0</title>
<path fill="none" stroke="black" d="M318,-125.5C342.49,-125.5 351.02,-124 371.27,-123.6"/>
<polygon fill="black" stroke="black" points="371.53,-127.09 381.5,-123.5 371.47,-120.09 371.53,-127.09"/>
</g>
<!-- node_weer -->
<g id="node4" class="node">
<title>node_weer</title>
<path fill="green" stroke="black" d="M377,-152.5C377,-152.5 538,-152.5 538,-152.5 544,-152.5 550,-158.5 550,-164.5 550,-164.5 550,-224.5 550,-224.5 550,-230.5 544,-236.5 538,-236.5 538,-236.5 377,-236.5 377,-236.5 371,-236.5 365,-230.5 365,-224.5 365,-224.5 365,-164.5 365,-164.5 365,-158.5 371,-152.5 377,-152.5"/>
<text text-anchor="middle" x="457.5" y="-222.9" font-family="Times,serif" font-size="12.00">Weersvoorspelling</text>
<polyline fill="none" stroke="black" points="365,-215.5 550,-215.5 "/>
<text text-anchor="middle" x="457.5" y="-201.9" font-family="Times,serif" font-size="12.00">JSON KNMI</text>
<polyline fill="none" stroke="black" points="365,-194.5 550,-194.5 "/>
<text text-anchor="middle" x="457.5" y="-180.9" font-family="Times,serif" font-size="12.00">Python/Jupyter</text>
<polyline fill="none" stroke="black" points="365,-173.5 550,-173.5 "/>
<text text-anchor="middle" x="457.5" y="-159.9" font-family="Times,serif" font-size="12.00">Ophalen voorspelling KNMI</text>
</g>
<!-- node_ML -->
<g id="node5" class="node">
<title>node_ML</title>
<path fill="green" stroke="black" d="M598,-77C598,-77 717,-77 717,-77 723,-77 729,-83 729,-89 729,-89 729,-162 729,-162 729,-168 723,-174 717,-174 717,-174 598,-174 598,-174 592,-174 586,-168 586,-162 586,-162 586,-89 586,-89 586,-83 592,-77 598,-77"/>
<text text-anchor="middle" x="657.5" y="-160.4" font-family="Times,serif" font-size="12.00">Machine learning</text>
<polyline fill="none" stroke="black" points="586,-153 729,-153 "/>
<text text-anchor="middle" x="657.5" y="-139.4" font-family="Times,serif" font-size="12.00">sk&#45;learn</text>
<polyline fill="none" stroke="black" points="586,-132 729,-132 "/>
<text text-anchor="middle" x="657.5" y="-118.4" font-family="Times,serif" font-size="12.00">Jupyter/Pandas</text>
<polyline fill="none" stroke="black" points="586,-111 729,-111 "/>
<text text-anchor="middle" x="657.5" y="-97.4" font-family="Times,serif" font-size="12.00">Leren en voorspellen</text>
<text text-anchor="middle" x="657.5" y="-84.4" font-family="Times,serif" font-size="12.00">kNN</text>
</g>
<!-- node_weer&#45;&gt;node_ML -->
<g id="edge1" class="edge">
<title>node_weer:f0&#45;&gt;node_ML:n</title>
<path fill="none" stroke="black" d="M550,-226.5C599.27,-226.5 650.04,-228.13 656.75,-185.6"/>
<polygon fill="black" stroke="black" points="660.25,-185.73 657.5,-175.5 653.27,-185.21 660.25,-185.73"/>
</g>
<!-- node_opbrengst -->
<g id="node6" class="node">
<title>node_opbrengst</title>
<path fill="green" stroke="black" d="M777,-104.5C777,-104.5 881,-104.5 881,-104.5 887,-104.5 893,-110.5 893,-116.5 893,-116.5 893,-168.5 893,-168.5 893,-174.5 887,-180.5 881,-180.5 881,-180.5 777,-180.5 777,-180.5 771,-180.5 765,-174.5 765,-168.5 765,-168.5 765,-116.5 765,-116.5 765,-110.5 771,-104.5 777,-104.5"/>
<text text-anchor="middle" x="829" y="-166.9" font-family="Times,serif" font-size="12.00">Opbrengst per uur</text>
<text text-anchor="middle" x="829" y="-153.9" font-family="Times,serif" font-size="12.00">of per dag</text>
<polyline fill="none" stroke="black" points="765,-146.5 893,-146.5 "/>
<text text-anchor="middle" x="829" y="-132.9" font-family="Times,serif" font-size="12.00">Jupyter/Pandas</text>
<polyline fill="none" stroke="black" points="765,-125.5 893,-125.5 "/>
<text text-anchor="middle" x="829" y="-111.9" font-family="Times,serif" font-size="12.00">dag = Σ uren</text>
</g>
<!-- node_ML&#45;&gt;node_opbrengst -->
<g id="edge7" class="edge">
<title>node_ML:f0&#45;&gt;node_opbrengst:f0</title>
<path fill="none" stroke="black" d="M729,-163.5C741,-163.5 746.25,-163.5 754.88,-163.5"/>
<polygon fill="black" stroke="black" points="755,-167 765,-163.5 755,-160 755,-167"/>
</g>
<!-- node_accu -->
<g id="node7" class="node">
<title>node_accu</title>
<path fill="green" stroke="black" d="M941,-152C941,-152 1138,-152 1138,-152 1144,-152 1150,-158 1150,-164 1150,-164 1150,-203 1150,-203 1150,-209 1144,-215 1138,-215 1138,-215 941,-215 941,-215 935,-215 929,-209 929,-203 929,-203 929,-164 929,-164 929,-158 935,-152 941,-152"/>
<text text-anchor="middle" x="1039.5" y="-201.4" font-family="Times,serif" font-size="12.00">Niveau accu</text>
<polyline fill="none" stroke="black" points="929,-194 1150,-194 "/>
<text text-anchor="middle" x="1039.5" y="-180.4" font-family="Times,serif" font-size="12.00">Jupyter</text>
<polyline fill="none" stroke="black" points="929,-173 1150,-173 "/>
<text text-anchor="middle" x="1039.5" y="-159.4" font-family="Times,serif" font-size="12.00">in &#45; uit + productie = accumulatie</text>
</g>
<!-- node_opbrengst&#45;&gt;node_accu -->
<g id="edge8" class="edge">
<title>node_opbrengst:f0&#45;&gt;node_accu:f0</title>
<path fill="none" stroke="black" d="M893,-163.5C913.08,-163.5 907.96,-191.62 919.38,-201.28"/>
<polygon fill="black" stroke="black" points="918.41,-204.65 929,-204.5 920.63,-198.01 918.41,-204.65"/>
</g>
<!-- node_evaluatie -->
<g id="node10" class="node">
<title>node_evaluatie</title>
<path fill="green" stroke="black" d="M970.5,-56.5C970.5,-56.5 1108.5,-56.5 1108.5,-56.5 1114.5,-56.5 1120.5,-62.5 1120.5,-68.5 1120.5,-68.5 1120.5,-120.5 1120.5,-120.5 1120.5,-126.5 1114.5,-132.5 1108.5,-132.5 1108.5,-132.5 970.5,-132.5 970.5,-132.5 964.5,-132.5 958.5,-126.5 958.5,-120.5 958.5,-120.5 958.5,-68.5 958.5,-68.5 958.5,-62.5 964.5,-56.5 970.5,-56.5"/>
<text text-anchor="middle" x="1039.5" y="-118.9" font-family="Times,serif" font-size="12.00">Model evaluatie</text>
<polyline fill="none" stroke="black" points="958.5,-111.5 1120.5,-111.5 "/>
<text text-anchor="middle" x="1039.5" y="-97.9" font-family="Times,serif" font-size="12.00">Jupyter</text>
<polyline fill="none" stroke="black" points="958.5,-90.5 1120.5,-90.5 "/>
<text text-anchor="middle" x="1039.5" y="-76.9" font-family="Times,serif" font-size="12.00">Opslaan voorspelling en</text>
<text text-anchor="middle" x="1039.5" y="-63.9" font-family="Times,serif" font-size="12.00">plotten in tijd</text>
</g>
<!-- node_opbrengst&#45;&gt;node_evaluatie -->
<g id="edge10" class="edge">
<title>node_opbrengst:f0&#45;&gt;node_evaluatie:f0</title>
<path fill="none" stroke="black" d="M893,-163.5C923.12,-163.5 923.83,-131.26 947.29,-123.96"/>
<polygon fill="black" stroke="black" points="948.1,-127.38 957.5,-122.5 947.11,-120.45 948.1,-127.38"/>
</g>
<!-- node_zon -->
<g id="node8" class="node">
<title>node_zon</title>
<path fill="green" stroke="black" d="M221,-158.5C221,-158.5 317,-158.5 317,-158.5 323,-158.5 329,-164.5 329,-170.5 329,-170.5 329,-222.5 329,-222.5 329,-228.5 323,-234.5 317,-234.5 317,-234.5 221,-234.5 221,-234.5 215,-234.5 209,-228.5 209,-222.5 209,-222.5 209,-170.5 209,-170.5 209,-164.5 215,-158.5 221,-158.5"/>
<text text-anchor="middle" x="269" y="-220.9" font-family="Times,serif" font-size="12.00">Stand van de zon</text>
<polyline fill="none" stroke="black" points="209,-213.5 329,-213.5 "/>
<text text-anchor="middle" x="269" y="-199.9" font-family="Times,serif" font-size="12.00">PySolar</text>
<polyline fill="none" stroke="black" points="209,-192.5 329,-192.5 "/>
<text text-anchor="middle" x="269" y="-178.9" font-family="Times,serif" font-size="12.00">Elevation</text>
<text text-anchor="middle" x="269" y="-165.9" font-family="Times,serif" font-size="12.00">Azimuth</text>
</g>
<!-- node_zon&#45;&gt;node_weer -->
<g id="edge11" class="edge">
<title>node_zon:f0&#45;&gt;node_weer:f0</title>
<path fill="none" stroke="black" d="M329,-224.5C341.02,-224.5 346.25,-225.62 354.87,-226.19"/>
<polygon fill="black" stroke="black" points="354.9,-229.69 365,-226.5 355.11,-222.69 354.9,-229.69"/>
</g>
<!-- node_zon&#45;&gt;node_combineren -->
<g id="edge9" class="edge">
<title>node_zon:f0&#45;&gt;node_combineren:f0</title>
<path fill="none" stroke="black" d="M329,-224.5C375.64,-224.5 337.91,-138.66 371.37,-125.25"/>
<polygon fill="black" stroke="black" points="372.24,-128.65 381.5,-123.5 371.05,-121.76 372.24,-128.65"/>
</g>
<!-- node_combineren&#45;&gt;node2 -->
<g id="edge5" class="edge">
<title>node_combineren:s&#45;&gt;node2:s</title>
<path fill="none" stroke="black" d="M457.5,-90.5C457.5,-9.92 284.85,10.95 270.01,-61.21"/>
<polygon fill="black" stroke="black" points="266.5,-61.2 269,-71.5 273.46,-61.89 266.5,-61.2"/>
</g>
<!-- node_combineren&#45;&gt;node_ML -->
<g id="edge6" class="edge">
<title>node_combineren&#45;&gt;node_ML:f0</title>
<path fill="none" stroke="black" d="M525.51,-133.64C533.84,-136.72 542.18,-140.04 550,-143.5 563.07,-149.29 566.52,-158.24 576.13,-161.88"/>
<polygon fill="black" stroke="black" points="575.56,-165.33 586,-163.5 576.7,-158.43 575.56,-165.33"/>
</g>
</g>
</svg>
