<?xml version="1.0" encoding="UTF-8" standalone="no"?>
<!DOCTYPE svg PUBLIC "-//W3C//DTD SVG 1.1//EN"
 "http://www.w3.org/Graphics/SVG/1.1/DTD/svg11.dtd">
<!-- Generated by graphviz version 2.48.0 (0)
 -->
<!-- Title: g Pages: 1 -->
<svg width="1002pt" height="271pt"
 viewBox="0.00 0.00 1002.00 271.00" xmlns="http://www.w3.org/2000/svg" xmlns:xlink="http://www.w3.org/1999/xlink">
<g id="graph0" class="graph" transform="scale(1 1) rotate(0) translate(4 267)">
<title>g</title>
<polygon fill="white" stroke="transparent" points="-4,4 -4,-267 998,-267 998,4 -4,4"/>
<!-- node0 -->
<g id="node1" class="node">
<title>node0</title>
<path fill="green" stroke="black" d="M16,-125.5C16,-125.5 157,-125.5 157,-125.5 163,-125.5 169,-131.5 169,-137.5 169,-137.5 169,-197.5 169,-197.5 169,-203.5 163,-209.5 157,-209.5 157,-209.5 16,-209.5 16,-209.5 10,-209.5 4,-203.5 4,-197.5 4,-197.5 4,-137.5 4,-137.5 4,-131.5 10,-125.5 16,-125.5"/>
<text text-anchor="middle" x="86.5" y="-195.9" font-family="Times,serif" font-size="12.00">Ophalen data SolarEdge</text>
<polyline fill="none" stroke="black" points="4,-188.5 169,-188.5 "/>
<text text-anchor="middle" x="86.5" y="-174.9" font-family="Times,serif" font-size="12.00">API SolarEdge</text>
<polyline fill="none" stroke="black" points="4,-167.5 169,-167.5 "/>
<text text-anchor="middle" x="86.5" y="-153.9" font-family="Times,serif" font-size="12.00">Python</text>
<polyline fill="none" stroke="black" points="4,-146.5 169,-146.5 "/>
<text text-anchor="middle" x="86.5" y="-132.9" font-family="Times,serif" font-size="12.00">Verversen mogelijk</text>
</g>
<!-- node2 -->
<g id="node3" class="node">
<title>node2</title>
<path fill="green" stroke="black" d="M266,-96C266,-96 337,-96 337,-96 343,-96 349,-102 349,-108 349,-108 349,-147 349,-147 349,-153 343,-159 337,-159 337,-159 266,-159 266,-159 260,-159 254,-153 254,-147 254,-147 254,-108 254,-108 254,-102 260,-96 266,-96"/>
<text text-anchor="middle" x="301.5" y="-145.4" font-family="Times,serif" font-size="12.00">Data storage</text>
<polyline fill="none" stroke="black" points="254,-138 349,-138 "/>
<text text-anchor="middle" x="301.5" y="-124.4" font-family="Times,serif" font-size="12.00">SQL</text>
<polyline fill="none" stroke="black" points="254,-117 349,-117 "/>
<text text-anchor="middle" x="301.5" y="-103.4" font-family="Times,serif" font-size="12.00">SQLite3</text>
</g>
<!-- node0&#45;&gt;node2 -->
<g id="edge2" class="edge">
<title>node0:f0&#45;&gt;node2:f0</title>
<path fill="none" stroke="black" d="M170.5,-199.5C192.19,-199.5 190.57,-180.95 209,-169.5 223.96,-160.21 229.2,-152.03 242.45,-149.39"/>
<polygon fill="black" stroke="black" points="242.85,-152.87 252.5,-148.5 242.23,-145.9 242.85,-152.87"/>
</g>
<!-- node1 -->
<g id="node2" class="node">
<title>node1</title>
<path fill="green" stroke="black" d="M12,-22.5C12,-22.5 161,-22.5 161,-22.5 167,-22.5 173,-28.5 173,-34.5 173,-34.5 173,-94.5 173,-94.5 173,-100.5 167,-106.5 161,-106.5 161,-106.5 12,-106.5 12,-106.5 6,-106.5 0,-100.5 0,-94.5 0,-94.5 0,-34.5 0,-34.5 0,-28.5 6,-22.5 12,-22.5"/>
<text text-anchor="middle" x="86.5" y="-92.9" font-family="Times,serif" font-size="12.00">Ophalen (oude) data weer</text>
<polyline fill="none" stroke="black" points="0,-85.5 173,-85.5 "/>
<text text-anchor="middle" x="86.5" y="-71.9" font-family="Times,serif" font-size="12.00">API KNMI</text>
<polyline fill="none" stroke="black" points="0,-64.5 173,-64.5 "/>
<text text-anchor="middle" x="86.5" y="-50.9" font-family="Times,serif" font-size="12.00">Python</text>
<polyline fill="none" stroke="black" points="0,-43.5 173,-43.5 "/>
<text text-anchor="middle" x="86.5" y="-29.9" font-family="Times,serif" font-size="12.00">Verversen mogelijk</text>
</g>
<!-- node1&#45;&gt;node2 -->
<g id="edge3" class="edge">
<title>node1:f0&#45;&gt;node2:f0</title>
<path fill="none" stroke="black" d="M173,-96.5C211.43,-96.5 210.79,-139.58 242.19,-147.32"/>
<polygon fill="black" stroke="black" points="242.17,-150.84 252.5,-148.5 242.96,-143.88 242.17,-150.84"/>
</g>
<!-- node_ML -->
<g id="node5" class="node">
<title>node_ML</title>
<path fill="#f7f7f7" stroke="black" d="M442,-62C442,-62 561,-62 561,-62 567,-62 573,-68 573,-74 573,-74 573,-147 573,-147 573,-153 567,-159 561,-159 561,-159 442,-159 442,-159 436,-159 430,-153 430,-147 430,-147 430,-74 430,-74 430,-68 436,-62 442,-62"/>
<text text-anchor="middle" x="501.5" y="-145.4" font-family="Times,serif" font-size="12.00">Machine learning</text>
<polyline fill="none" stroke="black" points="430,-138 573,-138 "/>
<text text-anchor="middle" x="501.5" y="-124.4" font-family="Times,serif" font-size="12.00">sk&#45;learn</text>
<polyline fill="none" stroke="black" points="430,-117 573,-117 "/>
<text text-anchor="middle" x="501.5" y="-103.4" font-family="Times,serif" font-size="12.00">Jupyter/Pandas</text>
<polyline fill="none" stroke="black" points="430,-96 573,-96 "/>
<text text-anchor="middle" x="501.5" y="-82.4" font-family="Times,serif" font-size="12.00">Leren en voorspellen</text>
<text text-anchor="middle" x="501.5" y="-69.4" font-family="Times,serif" font-size="12.00">kNN/CNN/RNN?</text>
</g>
<!-- node2&#45;&gt;node_ML -->
<g id="edge4" class="edge">
<title>node2:f0&#45;&gt;node_ML:f0</title>
<path fill="none" stroke="black" d="M350.5,-148.5C382.24,-148.5 392.6,-148.5 420,-148.5"/>
<polygon fill="black" stroke="black" points="420,-152 430,-148.5 420,-145 420,-152"/>
</g>
<!-- node_weer -->
<g id="node4" class="node">
<title>node_weer</title>
<path fill="#f7f7f7" stroke="black" d="M221,-178.5C221,-178.5 382,-178.5 382,-178.5 388,-178.5 394,-184.5 394,-190.5 394,-190.5 394,-250.5 394,-250.5 394,-256.5 388,-262.5 382,-262.5 382,-262.5 221,-262.5 221,-262.5 215,-262.5 209,-256.5 209,-250.5 209,-250.5 209,-190.5 209,-190.5 209,-184.5 215,-178.5 221,-178.5"/>
<text text-anchor="middle" x="301.5" y="-248.9" font-family="Times,serif" font-size="12.00">Weersvoorspelling</text>
<polyline fill="none" stroke="black" points="209,-241.5 394,-241.5 "/>
<text text-anchor="middle" x="301.5" y="-227.9" font-family="Times,serif" font-size="12.00">JSON KNMI</text>
<polyline fill="none" stroke="black" points="209,-220.5 394,-220.5 "/>
<text text-anchor="middle" x="301.5" y="-206.9" font-family="Times,serif" font-size="12.00">Python/Jupyter</text>
<polyline fill="none" stroke="black" points="209,-199.5 394,-199.5 "/>
<text text-anchor="middle" x="301.5" y="-185.9" font-family="Times,serif" font-size="12.00">Ophalen voorspelling KNMI</text>
</g>
<!-- node_weer&#45;&gt;node_ML -->
<g id="edge1" class="edge">
<title>node_weer:f0&#45;&gt;node_ML:n</title>
<path fill="none" stroke="black" d="M394,-252.5C453.45,-252.5 496.57,-226.48 501.1,-170.51"/>
<polygon fill="black" stroke="black" points="504.6,-170.63 501.5,-160.5 497.61,-170.35 504.6,-170.63"/>
</g>
<!-- node_opbrengst -->
<g id="node6" class="node">
<title>node_opbrengst</title>
<path fill="#f7f7f7" stroke="black" d="M621,-89.5C621,-89.5 725,-89.5 725,-89.5 731,-89.5 737,-95.5 737,-101.5 737,-101.5 737,-153.5 737,-153.5 737,-159.5 731,-165.5 725,-165.5 725,-165.5 621,-165.5 621,-165.5 615,-165.5 609,-159.5 609,-153.5 609,-153.5 609,-101.5 609,-101.5 609,-95.5 615,-89.5 621,-89.5"/>
<text text-anchor="middle" x="673" y="-151.9" font-family="Times,serif" font-size="12.00">Opbrengst per uur</text>
<text text-anchor="middle" x="673" y="-138.9" font-family="Times,serif" font-size="12.00">of per dag</text>
<polyline fill="none" stroke="black" points="609,-131.5 737,-131.5 "/>
<text text-anchor="middle" x="673" y="-117.9" font-family="Times,serif" font-size="12.00">Jupyter/Pandas</text>
<polyline fill="none" stroke="black" points="609,-110.5 737,-110.5 "/>
<text text-anchor="middle" x="673" y="-96.9" font-family="Times,serif" font-size="12.00">dag = Σ uren</text>
</g>
<!-- node_ML&#45;&gt;node_opbrengst -->
<g id="edge5" class="edge">
<title>node_ML:f0&#45;&gt;node_opbrengst:f0</title>
<path fill="none" stroke="black" d="M573,-148.5C585,-148.5 590.25,-148.5 598.88,-148.5"/>
<polygon fill="black" stroke="black" points="599,-152 609,-148.5 599,-145 599,-152"/>
</g>
<!-- node_accu -->
<g id="node7" class="node">
<title>node_accu</title>
<path fill="#f7f7f7" stroke="black" d="M785,-96C785,-96 982,-96 982,-96 988,-96 994,-102 994,-108 994,-108 994,-147 994,-147 994,-153 988,-159 982,-159 982,-159 785,-159 785,-159 779,-159 773,-153 773,-147 773,-147 773,-108 773,-108 773,-102 779,-96 785,-96"/>
<text text-anchor="middle" x="883.5" y="-145.4" font-family="Times,serif" font-size="12.00">Niveau accu</text>
<polyline fill="none" stroke="black" points="773,-138 994,-138 "/>
<text text-anchor="middle" x="883.5" y="-124.4" font-family="Times,serif" font-size="12.00">Jupyter</text>
<polyline fill="none" stroke="black" points="773,-117 994,-117 "/>
<text text-anchor="middle" x="883.5" y="-103.4" font-family="Times,serif" font-size="12.00">in &#45; uit + productie = accumulatie</text>
</g>
<!-- node_opbrengst&#45;&gt;node_accu -->
<g id="edge6" class="edge">
<title>node_opbrengst:f0&#45;&gt;node_accu:f0</title>
<path fill="none" stroke="black" d="M737,-148.5C749,-148.5 754.25,-148.5 762.88,-148.5"/>
<polygon fill="black" stroke="black" points="763,-152 773,-148.5 763,-145 763,-152"/>
</g>
<!-- node_zon -->
<g id="node8" class="node">
<title>node_zon</title>
<path fill="green" stroke="black" d="M253.5,-0.5C253.5,-0.5 349.5,-0.5 349.5,-0.5 355.5,-0.5 361.5,-6.5 361.5,-12.5 361.5,-12.5 361.5,-64.5 361.5,-64.5 361.5,-70.5 355.5,-76.5 349.5,-76.5 349.5,-76.5 253.5,-76.5 253.5,-76.5 247.5,-76.5 241.5,-70.5 241.5,-64.5 241.5,-64.5 241.5,-12.5 241.5,-12.5 241.5,-6.5 247.5,-0.5 253.5,-0.5"/>
<text text-anchor="middle" x="301.5" y="-62.9" font-family="Times,serif" font-size="12.00">Stand van de zon</text>
<polyline fill="none" stroke="black" points="241.5,-55.5 361.5,-55.5 "/>
<text text-anchor="middle" x="301.5" y="-41.9" font-family="Times,serif" font-size="12.00">PySolar</text>
<polyline fill="none" stroke="black" points="241.5,-34.5 361.5,-34.5 "/>
<text text-anchor="middle" x="301.5" y="-20.9" font-family="Times,serif" font-size="12.00">Elevation</text>
<text text-anchor="middle" x="301.5" y="-7.9" font-family="Times,serif" font-size="12.00">Azimuth</text>
</g>
<!-- node_zon&#45;&gt;node_ML -->
<g id="edge7" class="edge">
<title>node_zon:f0&#45;&gt;node_ML:f0</title>
<path fill="none" stroke="black" d="M362.5,-66.5C379.08,-66.5 382.51,-74.54 394,-86.5 413.15,-106.42 402.2,-138.42 419.73,-146.56"/>
<polygon fill="black" stroke="black" points="419.52,-150.09 430,-148.5 420.82,-143.21 419.52,-150.09"/>
</g>
</g>
</svg>
